<?xml version="1.0" encoding="UTF-8" standalone="no"?>
<!DOCTYPE svg PUBLIC "-//W3C//DTD SVG 1.1//EN"
 "http://www.w3.org/Graphics/SVG/1.1/DTD/svg11.dtd">
<!-- Generated by graphviz version 7.0.6 (20230106.0513)
 -->
<!-- Title: dependency&#45;cruiser output Pages: 1 -->
<svg width="889pt" height="452pt"
 viewBox="0.00 0.00 889.00 452.00" xmlns="http://www.w3.org/2000/svg" xmlns:xlink="http://www.w3.org/1999/xlink">
<g id="graph0" class="graph" transform="scale(1 1) rotate(0) translate(4 448)">
<title>dependency&#45;cruiser output</title>
<polygon fill="white" stroke="none" points="-4,4 -4,-448 885,-448 885,4 -4,4"/>
<g id="clust1" class="cluster">
<title>cluster_src</title>
<path fill="#ffffff" stroke="black" stroke-width="2" d="M20,-8C20,-8 861,-8 861,-8 867,-8 873,-14 873,-20 873,-20 873,-424 873,-424 873,-430 867,-436 861,-436 861,-436 20,-436 20,-436 14,-436 8,-430 8,-424 8,-424 8,-20 8,-20 8,-14 14,-8 20,-8"/>
<text text-anchor="middle" x="440.5" y="-424.8" font-family="Helvetica,sans-Serif" font-weight="bold" font-size="9.00">src</text>
</g>
<g id="clust2" class="cluster">
<title>cluster_src/assets</title>
<path fill="#ffffff" stroke="black" stroke-width="2" d="M406,-16C406,-16 485,-16 485,-16 491,-16 497,-22 497,-28 497,-28 497,-300 497,-300 497,-306 491,-312 485,-312 485,-312 406,-312 406,-312 400,-312 394,-306 394,-300 394,-300 394,-28 394,-28 394,-22 400,-16 406,-16"/>
<text text-anchor="middle" x="445.5" y="-300.8" font-family="Helvetica,sans-Serif" font-weight="bold" font-size="9.00">assets</text>
</g>
<g id="clust3" class="cluster">
<title>cluster_src/assets/audio</title>
<path fill="#ffffff" stroke="black" stroke-width="2" d="M414,-24C414,-24 477,-24 477,-24 483,-24 489,-30 489,-36 489,-36 489,-64 489,-64 489,-70 483,-76 477,-76 477,-76 414,-76 414,-76 408,-76 402,-70 402,-64 402,-64 402,-36 402,-36 402,-30 408,-24 414,-24"/>
<text text-anchor="middle" x="445.5" y="-64.8" font-family="Helvetica,sans-Serif" font-weight="bold" font-size="9.00">audio</text>
</g>
<g id="clust4" class="cluster">
<title>cluster_src/assets/gif</title>
<path fill="#ffffff" stroke="black" stroke-width="2" d="M415,-84C415,-84 476,-84 476,-84 482,-84 488,-90 488,-96 488,-96 488,-154 488,-154 488,-160 482,-166 476,-166 476,-166 415,-166 415,-166 409,-166 403,-160 403,-154 403,-154 403,-96 403,-96 403,-90 409,-84 415,-84"/>
<text text-anchor="middle" x="445.5" y="-154.8" font-family="Helvetica,sans-Serif" font-weight="bold" font-size="9.00">gif</text>
</g>
<g id="clust5" class="cluster">
<title>cluster_src/assets/images</title>
<path fill="#ffffff" stroke="black" stroke-width="2" d="M416,-174C416,-174 475,-174 475,-174 481,-174 487,-180 487,-186 487,-186 487,-274 487,-274 487,-280 481,-286 475,-286 475,-286 416,-286 416,-286 410,-286 404,-280 404,-274 404,-274 404,-186 404,-186 404,-180 410,-174 416,-174"/>
<text text-anchor="middle" x="445.5" y="-274.8" font-family="Helvetica,sans-Serif" font-weight="bold" font-size="9.00">images</text>
</g>
<g id="clust6" class="cluster">
<title>cluster_src/components</title>
<path fill="#ffffff" stroke="black" stroke-width="2" d="M208,-326C208,-326 484.5,-326 484.5,-326 490.5,-326 496.5,-332 496.5,-338 496.5,-338 496.5,-396 496.5,-396 496.5,-402 490.5,-408 484.5,-408 484.5,-408 208,-408 208,-408 202,-408 196,-402 196,-396 196,-396 196,-338 196,-338 196,-332 202,-326 208,-326"/>
<text text-anchor="middle" x="346.25" y="-396.8" font-family="Helvetica,sans-Serif" font-weight="bold" font-size="9.00">components</text>
</g>
<g id="clust9" class="cluster">
<title>cluster_src/types</title>
<path fill="#ffffff" stroke="black" stroke-width="2" d="M565.5,-238C565.5,-238 623.5,-238 623.5,-238 629.5,-238 635.5,-244 635.5,-250 635.5,-250 635.5,-278 635.5,-278 635.5,-284 629.5,-290 623.5,-290 623.5,-290 565.5,-290 565.5,-290 559.5,-290 553.5,-284 553.5,-278 553.5,-278 553.5,-250 553.5,-250 553.5,-244 559.5,-238 565.5,-238"/>
<text text-anchor="middle" x="594.5" y="-278.8" font-family="Helvetica,sans-Serif" font-weight="bold" font-size="9.00">types</text>
</g>
<g id="clust8" class="cluster">
<title>cluster_src/styles</title>
<path fill="#ffffff" stroke="black" stroke-width="2" d="M126,-291C126,-291 176,-291 176,-291 182,-291 188,-297 188,-303 188,-303 188,-331 188,-331 188,-337 182,-343 176,-343 176,-343 126,-343 126,-343 120,-343 114,-337 114,-331 114,-331 114,-303 114,-303 114,-297 120,-291 126,-291"/>
<text text-anchor="middle" x="151" y="-331.8" font-family="Helvetica,sans-Serif" font-weight="bold" font-size="9.00">styles</text>
</g>
<g id="clust7" class="cluster">
<title>cluster_src/config</title>
<path fill="#ffffff" stroke="black" stroke-width="2" d="M295,-232C295,-232 364,-232 364,-232 370,-232 376,-238 376,-244 376,-244 376,-272 376,-272 376,-278 370,-284 364,-284 364,-284 295,-284 295,-284 289,-284 283,-278 283,-272 283,-272 283,-244 283,-244 283,-238 289,-232 295,-232"/>
<text text-anchor="middle" x="329.5" y="-272.8" font-family="Helvetica,sans-Serif" font-weight="bold" font-size="9.00">config</text>
</g>
<g id="clust10" class="cluster">
<title>cluster_src/utils</title>
<path fill="#ffffff" stroke="black" stroke-width="2" d="M517,-298C517,-298 853,-298 853,-298 859,-298 865,-304 865,-310 865,-310 865,-398 865,-398 865,-404 859,-410 853,-410 853,-410 517,-410 517,-410 511,-410 505,-404 505,-398 505,-398 505,-310 505,-310 505,-304 511,-298 517,-298"/>
<text text-anchor="middle" x="685" y="-398.8" font-family="Helvetica,sans-Serif" font-weight="bold" font-size="9.00">utils</text>
</g>
<!-- src/App.tsx -->
<g id="node1" class="node">
<title>src/App.tsx</title>
<g id="a_node1"><a xlink:href="src/App.tsx" xlink:title="App.tsx">
<path fill="#bbfeff" stroke="black" d="M172,-283C172,-283 130,-283 130,-283 127,-283 124,-280 124,-277 124,-277 124,-271 124,-271 124,-268 127,-265 130,-265 130,-265 172,-265 172,-265 175,-265 178,-268 178,-271 178,-271 178,-277 178,-277 178,-280 175,-283 172,-283"/>
<text text-anchor="start" x="136" y="-271.8" font-family="Helvetica,sans-Serif" font-size="9.00">App.tsx</text>
</a>
</g>
</g>
<!-- src/assets/audio/music&#45;1.mp3 -->
<g id="node2" class="node">
<title>src/assets/audio/music&#45;1.mp3</title>
<g id="a_node2"><a xlink:href="src/assets/audio/music-1.mp3" xlink:title="music&#45;1.mp3">
<path fill="#ffffcc" stroke="black" d="M475,-50C475,-50 416,-50 416,-50 413,-50 410,-47 410,-44 410,-44 410,-38 410,-38 410,-35 413,-32 416,-32 416,-32 475,-32 475,-32 478,-32 481,-35 481,-38 481,-38 481,-44 481,-44 481,-47 478,-50 475,-50"/>
<text text-anchor="start" x="418" y="-38.8" font-family="Helvetica,sans-Serif" font-size="9.00">music&#45;1.mp3</text>
</a>
</g>
</g>
<!-- src/App.tsx&#45;&gt;src/assets/audio/music&#45;1.mp3 -->
<g id="edge1" class="edge">
<title>src/App.tsx&#45;&gt;src/assets/audio/music&#45;1.mp3</title>
<path fill="none" stroke="#000000" stroke-width="2" stroke-opacity="0.200000" d="M161.41,-264.52C170.29,-255.59 184.01,-241.84 196,-230 230,-196.44 235.84,-185.02 273,-155 322.69,-114.86 386.56,-75.22 420.61,-54.93"/>
<polygon fill="#000000" fill-opacity="0.200000" stroke="#000000" stroke-width="2" stroke-opacity="0.200000" points="421.51,-56.84 425.6,-51.98 419.37,-53.23 421.51,-56.84"/>
</g>
<!-- src/assets/images/pikachu.png -->
<g id="node3" class="node">
<title>src/assets/images/pikachu.png</title>
<g id="a_node3"><a xlink:href="src/assets/images/pikachu.png" xlink:title="pikachu.png">
<path fill="#ffffcc" stroke="black" d="M473,-200C473,-200 418,-200 418,-200 415,-200 412,-197 412,-194 412,-194 412,-188 412,-188 412,-185 415,-182 418,-182 418,-182 473,-182 473,-182 476,-182 479,-185 479,-188 479,-188 479,-194 479,-194 479,-197 476,-200 473,-200"/>
<text text-anchor="start" x="420" y="-188.8" font-family="Helvetica,sans-Serif" font-size="9.00">pikachu.png</text>
</a>
</g>
</g>
<!-- src/App.tsx&#45;&gt;src/assets/images/pikachu.png -->
<g id="edge2" class="edge">
<title>src/App.tsx&#45;&gt;src/assets/images/pikachu.png</title>
<path fill="none" stroke="#000000" stroke-width="2" stroke-opacity="0.200000" d="M174.43,-264.59C198.49,-254.76 237.96,-239.34 273,-229 316.82,-216.07 368.08,-205.26 403.07,-198.51"/>
<polygon fill="#000000" fill-opacity="0.200000" stroke="#000000" stroke-width="2" stroke-opacity="0.200000" points="403.12,-200.64 408.63,-197.46 402.34,-196.52 403.12,-200.64"/>
</g>
<!-- src/components/Game.tsx -->
<g id="node4" class="node">
<title>src/components/Game.tsx</title>
<g id="a_node4"><a xlink:href="src/components/Game.tsx" xlink:title="Game.tsx">
<path fill="#bbfeff" stroke="black" d="M254,-352C254,-352 210,-352 210,-352 207,-352 204,-349 204,-346 204,-346 204,-340 204,-340 204,-337 207,-334 210,-334 210,-334 254,-334 254,-334 257,-334 260,-337 260,-340 260,-340 260,-346 260,-346 260,-349 257,-352 254,-352"/>
<text text-anchor="start" x="212" y="-340.8" font-family="Helvetica,sans-Serif" font-size="9.00">Game.tsx</text>
</a>
</g>
</g>
<!-- src/App.tsx&#45;&gt;src/components/Game.tsx -->
<g id="edge3" class="edge">
<title>src/App.tsx&#45;&gt;src/components/Game.tsx</title>
<path fill="none" stroke="#000000" stroke-width="2" stroke-opacity="0.200000" d="M178.47,-280.61C182.08,-282.5 185.43,-284.91 188,-288 200.16,-302.61 183.73,-315.49 196,-330 196.26,-330.31 196.53,-330.61 196.81,-330.91"/>
<polygon fill="#000000" fill-opacity="0.200000" stroke="#000000" stroke-width="2" stroke-opacity="0.200000" points="195.12,-332.25 201.15,-334.25 197.68,-328.93 195.12,-332.25"/>
</g>
<!-- src/components/Menu.tsx -->
<g id="node5" class="node">
<title>src/components/Menu.tsx</title>
<g id="a_node5"><a xlink:href="src/components/Menu.tsx" xlink:title="Menu.tsx">
<path fill="#bbfeff" stroke="black" d="M253,-382C253,-382 211,-382 211,-382 208,-382 205,-379 205,-376 205,-376 205,-370 205,-370 205,-367 208,-364 211,-364 211,-364 253,-364 253,-364 256,-364 259,-367 259,-370 259,-370 259,-376 259,-376 259,-379 256,-382 253,-382"/>
<text text-anchor="start" x="213.5" y="-370.8" font-family="Helvetica,sans-Serif" font-size="9.00">Menu.tsx</text>
</a>
</g>
</g>
<!-- src/App.tsx&#45;&gt;src/components/Menu.tsx -->
<g id="edge4" class="edge">
<title>src/App.tsx&#45;&gt;src/components/Menu.tsx</title>
<path fill="none" stroke="#000000" stroke-width="2" stroke-opacity="0.200000" d="M178.31,-280.26C182.04,-282.19 185.46,-284.71 188,-288 207.12,-312.8 177.3,-332.88 196,-358 196.5,-358.67 197.04,-359.32 197.61,-359.93"/>
<polygon fill="#000000" fill-opacity="0.200000" stroke="#000000" stroke-width="2" stroke-opacity="0.200000" points="196.29,-361.56 202.3,-363.61 198.88,-358.26 196.29,-361.56"/>
</g>
<!-- src/assets/gif/pikachu&#45;1.gif -->
<g id="node6" class="node">
<title>src/assets/gif/pikachu&#45;1.gif</title>
<g id="a_node6"><a xlink:href="src/assets/gif/pikachu-1.gif" xlink:title="pikachu&#45;1.gif">
<path fill="#ffffcc" stroke="black" d="M474,-140C474,-140 417,-140 417,-140 414,-140 411,-137 411,-134 411,-134 411,-128 411,-128 411,-125 414,-122 417,-122 417,-122 474,-122 474,-122 477,-122 480,-125 480,-128 480,-128 480,-134 480,-134 480,-137 477,-140 474,-140"/>
<text text-anchor="start" x="419" y="-128.8" font-family="Helvetica,sans-Serif" font-size="9.00">pikachu&#45;1.gif</text>
</a>
</g>
</g>
<!-- src/components/Game.tsx&#45;&gt;src/assets/gif/pikachu&#45;1.gif -->
<g id="edge7" class="edge">
<title>src/components/Game.tsx&#45;&gt;src/assets/gif/pikachu&#45;1.gif</title>
<path fill="none" stroke="#000000" stroke-width="2" stroke-opacity="0.200000" d="M255.97,-333.54C257.42,-332.47 258.79,-331.29 260,-330 270.51,-318.81 260.7,-307.18 273,-298 293.22,-282.91 368.41,-305.09 386,-287 404.01,-268.47 381.96,-193.86 394,-171 399.55,-160.46 409.23,-151.76 418.63,-145.21"/>
<polygon fill="#000000" fill-opacity="0.200000" stroke="#000000" stroke-width="2" stroke-opacity="0.200000" points="419.6,-147.08 423.5,-142.05 417.32,-143.56 419.6,-147.08"/>
</g>
<!-- src/assets/gif/pikachu&#45;2.gif -->
<g id="node7" class="node">
<title>src/assets/gif/pikachu&#45;2.gif</title>
<g id="a_node7"><a xlink:href="src/assets/gif/pikachu-2.gif" xlink:title="pikachu&#45;2.gif">
<path fill="#ffffcc" stroke="black" d="M474,-110C474,-110 417,-110 417,-110 414,-110 411,-107 411,-104 411,-104 411,-98 411,-98 411,-95 414,-92 417,-92 417,-92 474,-92 474,-92 477,-92 480,-95 480,-98 480,-98 480,-104 480,-104 480,-107 477,-110 474,-110"/>
<text text-anchor="start" x="419" y="-98.8" font-family="Helvetica,sans-Serif" font-size="9.00">pikachu&#45;2.gif</text>
</a>
</g>
</g>
<!-- src/components/Game.tsx&#45;&gt;src/assets/gif/pikachu&#45;2.gif -->
<g id="edge8" class="edge">
<title>src/components/Game.tsx&#45;&gt;src/assets/gif/pikachu&#45;2.gif</title>
<path fill="none" stroke="#000000" stroke-width="2" stroke-opacity="0.200000" d="M256.6,-333.66C257.87,-332.57 259.03,-331.35 260,-330 286.48,-293.3 248.62,-267.13 273,-229 304.95,-179.03 352.56,-206.99 386,-158 396.71,-142.31 381.26,-130.09 394,-116 396.42,-113.33 399.28,-111.12 402.4,-109.31"/>
<polygon fill="#000000" fill-opacity="0.200000" stroke="#000000" stroke-width="2" stroke-opacity="0.200000" points="403.26,-111.22 407.83,-106.81 401.5,-107.41 403.26,-111.22"/>
</g>
<!-- src/config/levelsConfig.ts -->
<g id="node13" class="node">
<title>src/config/levelsConfig.ts</title>
<g id="a_node13"><a xlink:href="src/config/levelsConfig.ts" xlink:title="levelsConfig.ts">
<path fill="#ddfeff" stroke="black" d="M362,-258C362,-258 297,-258 297,-258 294,-258 291,-255 291,-252 291,-252 291,-246 291,-246 291,-243 294,-240 297,-240 297,-240 362,-240 362,-240 365,-240 368,-243 368,-246 368,-246 368,-252 368,-252 368,-255 365,-258 362,-258"/>
<text text-anchor="start" x="299" y="-246.8" font-family="Helvetica,sans-Serif" font-size="9.00">levelsConfig.ts</text>
</a>
</g>
</g>
<!-- src/components/Game.tsx&#45;&gt;src/config/levelsConfig.ts -->
<g id="edge9" class="edge">
<title>src/components/Game.tsx&#45;&gt;src/config/levelsConfig.ts</title>
<path fill="none" stroke="#000000" stroke-width="2" stroke-opacity="0.200000" d="M256.08,-333.64C257.51,-332.55 258.84,-331.34 260,-330 272.53,-315.56 261.79,-304.48 273,-289 280.6,-278.5 291.82,-269.68 302.18,-263.02"/>
<polygon fill="#000000" fill-opacity="0.200000" stroke="#000000" stroke-width="2" stroke-opacity="0.200000" points="303.23,-264.83 307.27,-259.92 301.05,-261.24 303.23,-264.83"/>
</g>
<!-- src/components/GameLevelManager.tsx -->
<g id="node14" class="node">
<title>src/components/GameLevelManager.tsx</title>
<g id="a_node14"><a xlink:href="src/components/GameLevelManager.tsx" xlink:title="GameLevelManager.tsx">
<path fill="#bbfeff" stroke="black" d="M380,-382C380,-382 279,-382 279,-382 276,-382 273,-379 273,-376 273,-376 273,-370 273,-370 273,-367 276,-364 279,-364 279,-364 380,-364 380,-364 383,-364 386,-367 386,-370 386,-370 386,-376 386,-376 386,-379 383,-382 380,-382"/>
<text text-anchor="start" x="281" y="-370.8" font-family="Helvetica,sans-Serif" font-size="9.00">GameLevelManager.tsx</text>
</a>
</g>
</g>
<!-- src/components/Game.tsx&#45;&gt;src/components/GameLevelManager.tsx -->
<g id="edge10" class="edge">
<title>src/components/Game.tsx&#45;&gt;src/components/GameLevelManager.tsx</title>
<path fill="none" stroke="#000000" stroke-width="2" stroke-opacity="0.200000" d="M256.98,-352.42C262.23,-354.36 267.78,-356.32 273,-358 276.27,-359.05 279.67,-360.1 283.1,-361.11"/>
<polygon fill="#000000" fill-opacity="0.200000" stroke="#000000" stroke-width="2" stroke-opacity="0.200000" points="282.38,-363.09 288.73,-362.73 283.54,-359.05 282.38,-363.09"/>
</g>
<!-- src/components/GameModal.tsx -->
<g id="node15" class="node">
<title>src/components/GameModal.tsx</title>
<g id="a_node15"><a xlink:href="src/components/GameModal.tsx" xlink:title="GameModal.tsx">
<path fill="#bbfeff" stroke="black" d="M363.5,-352C363.5,-352 295.5,-352 295.5,-352 292.5,-352 289.5,-349 289.5,-346 289.5,-346 289.5,-340 289.5,-340 289.5,-337 292.5,-334 295.5,-334 295.5,-334 363.5,-334 363.5,-334 366.5,-334 369.5,-337 369.5,-340 369.5,-340 369.5,-346 369.5,-346 369.5,-349 366.5,-352 363.5,-352"/>
<text text-anchor="start" x="297.5" y="-340.8" font-family="Helvetica,sans-Serif" font-size="9.00">GameModal.tsx</text>
</a>
</g>
</g>
<!-- src/components/Game.tsx&#45;&gt;src/components/GameModal.tsx -->
<g id="edge11" class="edge">
<title>src/components/Game.tsx&#45;&gt;src/components/GameModal.tsx</title>
<path fill="none" stroke="#000000" stroke-width="2" stroke-opacity="0.200000" d="M260.37,-343C266.64,-343 273.5,-343 280.37,-343"/>
<polygon fill="#000000" fill-opacity="0.200000" stroke="#000000" stroke-width="2" stroke-opacity="0.200000" points="280,-345.1 286,-343 280,-340.9 280,-345.1"/>
</g>
<!-- src/assets/images/logo.png -->
<g id="node8" class="node">
<title>src/assets/images/logo.png</title>
<g id="a_node8"><a xlink:href="src/assets/images/logo.png" xlink:title="logo.png">
<path fill="#ffffcc" stroke="black" d="M466.5,-260C466.5,-260 424.5,-260 424.5,-260 421.5,-260 418.5,-257 418.5,-254 418.5,-254 418.5,-248 418.5,-248 418.5,-245 421.5,-242 424.5,-242 424.5,-242 466.5,-242 466.5,-242 469.5,-242 472.5,-245 472.5,-248 472.5,-248 472.5,-254 472.5,-254 472.5,-257 469.5,-260 466.5,-260"/>
<text text-anchor="start" x="427" y="-248.8" font-family="Helvetica,sans-Serif" font-size="9.00">logo.png</text>
</a>
</g>
</g>
<!-- src/components/Menu.tsx&#45;&gt;src/assets/images/logo.png -->
<g id="edge18" class="edge">
<title>src/components/Menu.tsx&#45;&gt;src/assets/images/logo.png</title>
<path fill="none" stroke="#000000" stroke-width="2" stroke-opacity="0.200000" d="M253.54,-363.54C255.9,-361.91 258.13,-360.07 260,-358 269.76,-347.23 261.48,-336.86 273,-328 313.26,-297.04 347.33,-343.92 386,-311 394.88,-303.44 387.06,-295.38 394,-286 400.17,-277.66 408.94,-270.61 417.44,-265.07"/>
<polygon fill="#000000" fill-opacity="0.200000" stroke="#000000" stroke-width="2" stroke-opacity="0.200000" points="418.48,-266.9 422.51,-261.98 416.29,-263.31 418.48,-266.9"/>
</g>
<!-- src/assets/images/menu&#45;2.png -->
<g id="node9" class="node">
<title>src/assets/images/menu&#45;2.png</title>
<g id="a_node9"><a xlink:href="src/assets/images/menu-2.png" xlink:title="menu&#45;2.png">
<path fill="#ffffcc" stroke="black" d="M473,-230C473,-230 418,-230 418,-230 415,-230 412,-227 412,-224 412,-224 412,-218 412,-218 412,-215 415,-212 418,-212 418,-212 473,-212 473,-212 476,-212 479,-215 479,-218 479,-218 479,-224 479,-224 479,-227 476,-230 473,-230"/>
<text text-anchor="start" x="420" y="-218.8" font-family="Helvetica,sans-Serif" font-size="9.00">menu&#45;2.png</text>
</a>
</g>
</g>
<!-- src/components/Menu.tsx&#45;&gt;src/assets/images/menu&#45;2.png -->
<g id="edge19" class="edge">
<title>src/components/Menu.tsx&#45;&gt;src/assets/images/menu&#45;2.png</title>
<path fill="none" stroke="#000000" stroke-width="2" stroke-opacity="0.200000" d="M254.08,-363.58C256.29,-361.96 258.34,-360.1 260,-358 273.19,-341.34 256.94,-325.91 273,-312 311.3,-278.84 350.2,-332.85 386,-297 405.32,-277.65 376.25,-256.8 394,-236 396.64,-232.9 399.89,-230.43 403.46,-228.46"/>
<polygon fill="#000000" fill-opacity="0.200000" stroke="#000000" stroke-width="2" stroke-opacity="0.200000" points="404.22,-230.41 408.89,-226.09 402.55,-226.56 404.22,-230.41"/>
</g>
<!-- src/components/Card.tsx -->
<g id="node10" class="node">
<title>src/components/Card.tsx</title>
<g id="a_node10"><a xlink:href="src/components/Card.tsx" xlink:title="Card.tsx">
<path fill="#bbfeff" stroke="black" d="M466.5,-382C466.5,-382 424.5,-382 424.5,-382 421.5,-382 418.5,-379 418.5,-376 418.5,-376 418.5,-370 418.5,-370 418.5,-367 421.5,-364 424.5,-364 424.5,-364 466.5,-364 466.5,-364 469.5,-364 472.5,-367 472.5,-370 472.5,-370 472.5,-376 472.5,-376 472.5,-379 469.5,-382 466.5,-382"/>
<text text-anchor="start" x="428.5" y="-370.8" font-family="Helvetica,sans-Serif" font-size="9.00">Card.tsx</text>
</a>
</g>
</g>
<!-- src/types/Pokemon.ts -->
<g id="node11" class="node">
<title>src/types/Pokemon.ts</title>
<g id="a_node11"><a xlink:href="src/types/Pokemon.ts" xlink:title="Pokemon.ts">
<path fill="#ddfeff" stroke="black" d="M621.5,-264C621.5,-264 567.5,-264 567.5,-264 564.5,-264 561.5,-261 561.5,-258 561.5,-258 561.5,-252 561.5,-252 561.5,-249 564.5,-246 567.5,-246 567.5,-246 621.5,-246 621.5,-246 624.5,-246 627.5,-249 627.5,-252 627.5,-252 627.5,-258 627.5,-258 627.5,-261 624.5,-264 621.5,-264"/>
<text text-anchor="start" x="569.5" y="-252.8" font-family="Helvetica,sans-Serif" font-size="9.00">Pokemon.ts</text>
</a>
</g>
</g>
<!-- src/components/Card.tsx&#45;&gt;src/types/Pokemon.ts -->
<g id="edge5" class="edge">
<title>src/components/Card.tsx&#45;&gt;src/types/Pokemon.ts</title>
<path fill="none" stroke="#000000" stroke-width="2" stroke-opacity="0.200000" d="M472.78,-370.96C481.72,-368.94 490.96,-365.11 497,-358 515.27,-336.49 488.23,-317.7 505,-295 516.45,-279.5 535.32,-269.87 552.7,-263.95"/>
<polygon fill="#000000" fill-opacity="0.200000" stroke="#000000" stroke-width="2" stroke-opacity="0.200000" points="553.08,-266.03 558.18,-262.24 551.83,-262.02 553.08,-266.03"/>
</g>
<!-- src/utils/kebabToPascalCaseWithSpaces.ts -->
<g id="node12" class="node">
<title>src/utils/kebabToPascalCaseWithSpaces.ts</title>
<g id="a_node12"><a xlink:href="src/utils/kebabToPascalCaseWithSpaces.ts" xlink:title="kebabToPascalCaseWithSpaces.ts">
<path fill="#ddfeff" stroke="black" d="M670,-324C670,-324 519,-324 519,-324 516,-324 513,-321 513,-318 513,-318 513,-312 513,-312 513,-309 516,-306 519,-306 519,-306 670,-306 670,-306 673,-306 676,-309 676,-312 676,-312 676,-318 676,-318 676,-321 673,-324 670,-324"/>
<text text-anchor="start" x="521" y="-312.8" font-family="Helvetica,sans-Serif" font-size="9.00">kebabToPascalCaseWithSpaces.ts</text>
</a>
</g>
</g>
<!-- src/components/Card.tsx&#45;&gt;src/utils/kebabToPascalCaseWithSpaces.ts -->
<g id="edge6" class="edge">
<title>src/components/Card.tsx&#45;&gt;src/utils/kebabToPascalCaseWithSpaces.ts</title>
<path fill="none" stroke="#000000" stroke-width="2" stroke-opacity="0.200000" d="M473,-370.26C481.64,-368.14 490.63,-364.44 497,-358 506.1,-348.8 495.36,-338.63 505,-330 505.3,-329.73 505.61,-329.46 505.92,-329.19"/>
<polygon fill="#000000" fill-opacity="0.200000" stroke="#000000" stroke-width="2" stroke-opacity="0.200000" points="506.76,-331.18 510.4,-325.97 504.3,-327.77 506.76,-331.18"/>
</g>
<!-- src/components/GameLevelManager.tsx&#45;&gt;src/assets/images/logo.png -->
<g id="edge12" class="edge">
<title>src/components/GameLevelManager.tsx&#45;&gt;src/assets/images/logo.png</title>
<path fill="none" stroke="#000000" stroke-width="2" stroke-opacity="0.200000" d="M379.37,-363.53C381.79,-361.95 384.03,-360.12 386,-358 398.65,-344.41 386.38,-333.93 394,-317 402.59,-297.91 417.67,-279.25 429.12,-266.67"/>
<polygon fill="#000000" fill-opacity="0.200000" stroke="#000000" stroke-width="2" stroke-opacity="0.200000" points="430.41,-268.37 432.98,-262.56 427.34,-265.5 430.41,-268.37"/>
</g>
<!-- src/components/GameLevelManager.tsx&#45;&gt;src/components/Card.tsx -->
<g id="edge16" class="edge">
<title>src/components/GameLevelManager.tsx&#45;&gt;src/components/Card.tsx</title>
<path fill="none" stroke="#000000" stroke-width="2" stroke-opacity="0.200000" d="M386.5,-373C394.26,-373 402.04,-373 409.28,-373"/>
<polygon fill="#000000" fill-opacity="0.200000" stroke="#000000" stroke-width="2" stroke-opacity="0.200000" points="409.08,-375.1 415.08,-373 409.08,-370.9 409.08,-375.1"/>
</g>
<!-- src/components/GameLevelManager.tsx&#45;&gt;src/types/Pokemon.ts -->
<g id="edge13" class="edge">
<title>src/components/GameLevelManager.tsx&#45;&gt;src/types/Pokemon.ts</title>
<path fill="none" stroke="#000000" stroke-width="2" stroke-opacity="0.200000" d="M378.95,-363.53C381.51,-361.95 383.89,-360.12 386,-358 395.74,-348.23 384.69,-338.19 394,-328 396.91,-324.82 501.91,-287.37 558.38,-267.39"/>
<polygon fill="#000000" fill-opacity="0.200000" stroke="#000000" stroke-width="2" stroke-opacity="0.200000" points="558.86,-269.44 563.82,-265.46 557.46,-265.49 558.86,-269.44"/>
</g>
<!-- src/utils/arrayUtils.ts -->
<g id="node16" class="node">
<title>src/utils/arrayUtils.ts</title>
<g id="a_node16"><a xlink:href="src/utils/arrayUtils.ts" xlink:title="arrayUtils.ts">
<path fill="#ddfeff" stroke="black" d="M621,-384C621,-384 568,-384 568,-384 565,-384 562,-381 562,-378 562,-378 562,-372 562,-372 562,-369 565,-366 568,-366 568,-366 621,-366 621,-366 624,-366 627,-369 627,-372 627,-372 627,-378 627,-378 627,-381 624,-384 621,-384"/>
<text text-anchor="start" x="570" y="-372.8" font-family="Helvetica,sans-Serif" font-size="9.00">arrayUtils.ts</text>
</a>
</g>
</g>
<!-- src/components/GameLevelManager.tsx&#45;&gt;src/utils/arrayUtils.ts -->
<g id="edge14" class="edge">
<title>src/components/GameLevelManager.tsx&#45;&gt;src/utils/arrayUtils.ts</title>
<path fill="none" stroke="#000000" stroke-width="2" stroke-opacity="0.200000" d="M348.26,-382.46C360.68,-388.52 377.87,-395.83 394,-399 438.92,-407.84 451.56,-404.57 497,-399 516.44,-396.62 537.6,-391.64 555.14,-386.82"/>
<polygon fill="#000000" fill-opacity="0.200000" stroke="#000000" stroke-width="2" stroke-opacity="0.200000" points="555.31,-388.96 560.52,-385.31 554.17,-384.91 555.31,-388.96"/>
</g>
<!-- src/utils/randomPokemonFetcher.ts -->
<g id="node17" class="node">
<title>src/utils/randomPokemonFetcher.ts</title>
<g id="a_node17"><a xlink:href="src/utils/randomPokemonFetcher.ts" xlink:title="randomPokemonFetcher.ts">
<path fill="#ddfeff" stroke="black" d="M653,-354C653,-354 536,-354 536,-354 533,-354 530,-351 530,-348 530,-348 530,-342 530,-342 530,-339 533,-336 536,-336 536,-336 653,-336 653,-336 656,-336 659,-339 659,-342 659,-342 659,-348 659,-348 659,-351 656,-354 653,-354"/>
<text text-anchor="start" x="538" y="-342.8" font-family="Helvetica,sans-Serif" font-size="9.00">randomPokemonFetcher.ts</text>
</a>
</g>
</g>
<!-- src/components/GameLevelManager.tsx&#45;&gt;src/utils/randomPokemonFetcher.ts -->
<g id="edge15" class="edge">
<title>src/components/GameLevelManager.tsx&#45;&gt;src/utils/randomPokemonFetcher.ts</title>
<path fill="none" stroke="#000000" stroke-width="2" stroke-opacity="0.200000" d="M364.18,-382.49C373.74,-384.76 384.21,-386.86 394,-388 416.74,-390.65 478.73,-401.78 497,-388 507.33,-380.21 495.36,-368.63 505,-360 509.79,-355.71 515.33,-352.42 521.26,-349.91"/>
<polygon fill="#000000" fill-opacity="0.200000" stroke="#000000" stroke-width="2" stroke-opacity="0.200000" points="521.76,-351.96 526.71,-347.96 520.35,-348 521.76,-351.96"/>
</g>
<!-- src/components/SkeletonCard.tsx -->
<g id="node18" class="node">
<title>src/components/SkeletonCard.tsx</title>
<g id="a_node18"><a xlink:href="src/components/SkeletonCard.tsx" xlink:title="SkeletonCard.tsx">
<path fill="#bbfeff" stroke="black" d="M482.5,-352C482.5,-352 408.5,-352 408.5,-352 405.5,-352 402.5,-349 402.5,-346 402.5,-346 402.5,-340 402.5,-340 402.5,-337 405.5,-334 408.5,-334 408.5,-334 482.5,-334 482.5,-334 485.5,-334 488.5,-337 488.5,-340 488.5,-340 488.5,-346 488.5,-346 488.5,-349 485.5,-352 482.5,-352"/>
<text text-anchor="start" x="410.5" y="-340.8" font-family="Helvetica,sans-Serif" font-size="9.00">SkeletonCard.tsx</text>
</a>
</g>
</g>
<!-- src/components/GameLevelManager.tsx&#45;&gt;src/components/SkeletonCard.tsx -->
<g id="edge17" class="edge">
<title>src/components/GameLevelManager.tsx&#45;&gt;src/components/SkeletonCard.tsx</title>
<path fill="none" stroke="#000000" stroke-width="2" stroke-opacity="0.200000" d="M366.57,-363.51C377.17,-360.72 388.9,-357.63 399.96,-354.72"/>
<polygon fill="#000000" fill-opacity="0.200000" stroke="#000000" stroke-width="2" stroke-opacity="0.200000" points="400.47,-356.76 405.74,-353.2 399.4,-352.7 400.47,-356.76"/>
</g>
<!-- src/utils/fetchData.ts -->
<g id="node22" class="node">
<title>src/utils/fetchData.ts</title>
<g id="a_node22"><a xlink:href="src/utils/fetchData.ts" xlink:title="fetchData.ts">
<path fill="#ddfeff" stroke="black" d="M799.5,-339C799.5,-339 746.5,-339 746.5,-339 743.5,-339 740.5,-336 740.5,-333 740.5,-333 740.5,-327 740.5,-327 740.5,-324 743.5,-321 746.5,-321 746.5,-321 799.5,-321 799.5,-321 802.5,-321 805.5,-324 805.5,-327 805.5,-327 805.5,-333 805.5,-333 805.5,-336 802.5,-339 799.5,-339"/>
<text text-anchor="start" x="748.5" y="-327.8" font-family="Helvetica,sans-Serif" font-size="9.00">fetchData.ts</text>
</a>
</g>
</g>
<!-- src/utils/randomPokemonFetcher.ts&#45;&gt;src/utils/fetchData.ts -->
<g id="edge22" class="edge">
<title>src/utils/randomPokemonFetcher.ts&#45;&gt;src/utils/fetchData.ts</title>
<path fill="none" stroke="#000000" stroke-width="2" stroke-opacity="0.200000" d="M659.47,-339.56C683.47,-337.52 710.06,-335.26 731.37,-333.45"/>
<polygon fill="#000000" fill-opacity="0.200000" stroke="#000000" stroke-width="2" stroke-opacity="0.200000" points="731.34,-335.56 737.14,-332.96 730.98,-331.38 731.34,-335.56"/>
</g>
<!-- src/utils/generateUniqueRandomNumbers.ts -->
<g id="node23" class="node">
<title>src/utils/generateUniqueRandomNumbers.ts</title>
<g id="a_node23"><a xlink:href="src/utils/generateUniqueRandomNumbers.ts" xlink:title="generateUniqueRandomNumbers.ts">
<path fill="#ddfeff" stroke="black" d="M851,-369C851,-369 695,-369 695,-369 692,-369 689,-366 689,-363 689,-363 689,-357 689,-357 689,-354 692,-351 695,-351 695,-351 851,-351 851,-351 854,-351 857,-354 857,-357 857,-357 857,-363 857,-363 857,-366 854,-369 851,-369"/>
<text text-anchor="start" x="697" y="-357.8" font-family="Helvetica,sans-Serif" font-size="9.00">generateUniqueRandomNumbers.ts</text>
</a>
</g>
</g>
<!-- src/utils/randomPokemonFetcher.ts&#45;&gt;src/utils/generateUniqueRandomNumbers.ts -->
<g id="edge23" class="edge">
<title>src/utils/randomPokemonFetcher.ts&#45;&gt;src/utils/generateUniqueRandomNumbers.ts</title>
<path fill="none" stroke="#000000" stroke-width="2" stroke-opacity="0.200000" d="M659.47,-350.44C666.13,-351 672.99,-351.59 679.88,-352.17"/>
<polygon fill="#000000" fill-opacity="0.200000" stroke="#000000" stroke-width="2" stroke-opacity="0.200000" points="679.44,-354.24 685.6,-352.66 679.79,-350.06 679.44,-354.24"/>
</g>
<!-- src/main.tsx -->
<g id="node19" class="node">
<title>src/main.tsx</title>
<g id="a_node19"><a xlink:href="src/main.tsx" xlink:title="main.tsx">
<path fill="#bbfeff" stroke="black" d="M82,-300C82,-300 40,-300 40,-300 37,-300 34,-297 34,-294 34,-294 34,-288 34,-288 34,-285 37,-282 40,-282 40,-282 82,-282 82,-282 85,-282 88,-285 88,-288 88,-288 88,-294 88,-294 88,-297 85,-300 82,-300"/>
<text text-anchor="start" x="43.5" y="-288.8" font-family="Helvetica,sans-Serif" font-size="9.00">main.tsx</text>
</a>
</g>
</g>
<!-- src/main.tsx&#45;&gt;src/App.tsx -->
<g id="edge20" class="edge">
<title>src/main.tsx&#45;&gt;src/App.tsx</title>
<path fill="none" stroke="#000000" stroke-width="2" stroke-opacity="0.200000" d="M88.4,-285.9C96.76,-284.29 106.12,-282.48 114.98,-280.76"/>
<polygon fill="#000000" fill-opacity="0.200000" stroke="#000000" stroke-width="2" stroke-opacity="0.200000" points="115.15,-282.87 120.64,-279.67 114.35,-278.75 115.15,-282.87"/>
</g>
<!-- src/styles/style.scss -->
<g id="node20" class="node">
<title>src/styles/style.scss</title>
<g id="a_node20"><a xlink:href="src/styles/style.scss" xlink:title="style.scss">
<path fill="#ffffcc" stroke="black" d="M174,-317C174,-317 128,-317 128,-317 125,-317 122,-314 122,-311 122,-311 122,-305 122,-305 122,-302 125,-299 128,-299 128,-299 174,-299 174,-299 177,-299 180,-302 180,-305 180,-305 180,-311 180,-311 180,-314 177,-317 174,-317"/>
<text text-anchor="start" x="130" y="-305.8" font-family="Helvetica,sans-Serif" font-size="9.00">style.scss</text>
</a>
</g>
</g>
<!-- src/main.tsx&#45;&gt;src/styles/style.scss -->
<g id="edge21" class="edge">
<title>src/main.tsx&#45;&gt;src/styles/style.scss</title>
<path fill="none" stroke="#000000" stroke-width="2" stroke-opacity="0.200000" d="M88.4,-296.1C96.14,-297.59 104.74,-299.26 113,-300.85"/>
<polygon fill="#000000" fill-opacity="0.200000" stroke="#000000" stroke-width="2" stroke-opacity="0.200000" points="112.52,-302.9 118.81,-301.97 113.31,-298.77 112.52,-302.9"/>
</g>
<!-- src/react&#45;app&#45;env.d.ts -->
<g id="node21" class="node">
<title>src/react&#45;app&#45;env.d.ts</title>
<g id="a_node21"><a xlink:href="src/react-app-env.d.ts" xlink:title="react&#45;app&#45;env.d.ts">
<path fill="#ccffcc" stroke="black" d="M100,-202C100,-202 22,-202 22,-202 19,-202 16,-199 16,-196 16,-196 16,-190 16,-190 16,-187 19,-184 22,-184 22,-184 100,-184 100,-184 103,-184 106,-187 106,-190 106,-190 106,-196 106,-196 106,-199 103,-202 100,-202"/>
<text text-anchor="start" x="24" y="-190.8" font-family="Helvetica,sans-Serif" font-size="9.00">react&#45;app&#45;env.d.ts</text>
</a>
</g>
</g>
</g>
</svg>
